:SAMPLES-PER-SECOND 24
:FULLY-SPECIFIED
:DEGREES
300
root  -14.6585 39.383 24.0349 11.2607 -45.1271 -5.32596
RightUpLeg  -17.9555 11.7217 -13.7399
RightLeg  16.6761 -1.74781 -1.13038
RightFoot  -2.25666 -0.913648 11.2851
RightToes  -2.08645e-008 3.77894e-005 6.81332e-007
Spine  16.5396 -1.76242 -7.98126
Spine1  3.83337 -5.65003 13.2363
HEad  -40.9856 43.0907 -17.9587
LeftShoulder1  4.89959 -10.5628 -28.7942
LeftArm  18.0426 -1.73502 -44.5109
LeftForeArm  164.214 -72.3951 -148.793
LeftHand  -0.231521 -4.21442 3.0708
RightShoulder  3.50545 6.32923 29.7324
RightArm  8.79734 -39.637 31.0018
RightForeArm  104.002 80.6594 87.5238
RightHand  -0.198758 9.99517 -1.89324
LeftUpLeg  -15.5676 -0.262837 20.9342
LeftLeg  27.3087 15.9269 9.11515
LeftFoot  0.705246 0.418269 -3.84419
LeftToes  1.24767e-006 1.47042e-008 1.32732e-009
301
root  -13.9564 38.4615 24.5063 9.62726 -42.9997 -5.49872
RightUpLeg  -17.506 12.8505 -14.9295
RightLeg  20.9448 -3.80908 -1.80903
RightFoot  -7.13024 -0.525658 12.9649
RightToes  -2.08645e-008 3.77894e-005 6.81332e-007
Spine  19.1734 -1.81287 -7.24271
Spine1  2.20982 -5.42073 12.3124
HEad  -41.8058 40.4376 -18.4903
LeftShoulder1  4.95957 -10.6882 -28.9164
LeftArm  19.7177 0.306939 -43.886
LeftForeArm  157.89 -75.5879 -140.658
LeftHand  -0.225308 -4.28596 2.98933
RightShoulder  3.50019 6.26073 29.9335
RightArm  9.26905 -33.9314 28.9555
RightForeArm  96.5809 80.4907 81.9975
RightHand  -0.35555 9.46757 -3.17195
LeftUpLeg  -15.7717 -6.38387 23.6069
LeftLeg  27.0365 13.7145 7.83223
LeftFoot  -0.885627 1.03994 -11.1574
LeftToes  1.24767e-006 1.47042e-008 1.32732e-009
302
root  -12.9909 37.343 25.0906 8.61621 -41.8719 -5.92899
RightUpLeg  -18.2312 10.6466 -16.5321
RightLeg  25.6181 -2.02739 -1.28135
RightFoot  -11.3738 -0.0734043 14.9052
RightToes  -2.08645e-008 3.77894e-005 6.81332e-007
Spine  19.856 -1.9604 -5.32869
Spine1  2.99411 -4.95943 9.95204
HEad  -43.3273 37.6279 -19.6085
LeftShoulder1  5.49326 -11.3323 -31.023
LeftArm  20.4617 -0.246376 -40.8862
LeftForeArm  140.953 -78.7418 -124.496
LeftHand  -0.38335 -4.46099 4.80482
RightShoulder  3.44553 6.16825 29.7069
RightArm  7.19792 -26.4103 28.2414
RightForeArm  81.1352 79.7057 65.3709
RightHand  -0.437208 9.19726 -3.86354
LeftUpLeg  -17.3273 -7.04944 24.2113
LeftLeg  31.8154 8.62975 6.08421
LeftFoot  -8.54163 0.590395 -21.845
LeftToes  1.24767e-006 1.47042e-008 1.32732e-009
303
root  -11.862 36.6432 25.8656 7.55164 -40.8639 -5.5972
RightUpLeg  -17.4052 8.43336 -19.1247
RightLeg  26.326 -0.352452 -0.423427
RightFoot  -12.8062 0.134824 17.5709
RightToes  -2.08645e-008 3.77894e-005 6.81332e-007
Spine  18.6005 -1.8401 -3.6186
Spine1  5.94555 -4.29293 7.41802
HEad  -44.7863 34.3371 -20.0857
LeftShoulder1  6.16997 -12.1001 -33.5381
LeftArm  19.3575 -1.13696 -39.3489
LeftForeArm  106.69 -80.7359 -88.3472
LeftHand  -0.514498 -4.33416 6.42705
RightShoulder  3.3134 5.95687 29.0937
RightArm  2.58129 -21.4126 28.9115
RightForeArm  70.6957 78.5042 53.7354
RightHand  -0.715694 8.05876 -6.53648
LeftUpLeg  -19.1504 -7.36106 22.0256
LeftLeg  36.8973 7.7983 6.63266
LeftFoot  -15.7127 -0.807144 -23.7391
LeftToes  1.24767e-006 1.47042e-008 1.32732e-009
304
root  -10.6578 36.6567 26.7374 6.81256 -40.4499 -4.72766
RightUpLeg  -15.5933 9.73664 -22.1778
RightLeg  22.5318 -1.79038 -0.967476
RightFoot  -9.24079 -0.451719 19.9963
RightToes  -2.08645e-008 3.77894e-005 6.81332e-007
Spine  17.076 -1.04395 -2.45551
Spine1  7.59003 -2.9975 5.72981
HEad  -44.9511 31.2528 -19.9832
LeftShoulder1  6.83017 -12.7915 -35.8727
LeftArm  16.3082 2.45878 -38.4846
LeftForeArm  86.0755 -79.9618 -64.2497
LeftHand  -0.542455 -3.98522 6.9868
RightShoulder  3.28783 5.8411 29.2586
RightArm  -0.125012 -21.4905 29.0359
RightForeArm  73.7218 79.0158 58.8418
RightHand  -0.783252 6.78894 -7.78668
LeftUpLeg  -20.3934 -9.51359 18.4822
LeftLeg  39.2685 9.73494 8.79647
LeftFoot  -17.6469 -1.02935 -20.3151
LeftToes  1.24767e-006 1.47042e-008 1.32732e-009
305
root  -9.57015 37.2914 27.5562 7.4054 -41.2656 -4.79681
RightUpLeg  -14.1892 10.8733 -23.0946
RightLeg  16.6995 -6.64262 -2.77988
RightFoot  -0.460185 -1.75133 18.2611
RightToes  -2.08645e-008 3.77894e-005 6.81332e-007
Spine  15.937 -0.0314319 -0.88566
Spine1  6.90988 -1.31584 4.48154
HEad  -43.6274 30.2804 -19.8089
LeftShoulder1  7.0025 -12.9227 -36.5753
LeftArm  13.7298 11.2761 -35.9906
LeftForeArm  93.7832 -80.4413 -74.5057
LeftHand  -0.522824 -3.69749 6.94002
RightShoulder  3.39092 5.94178 29.9897
RightArm  2.21327 -23.8222 29.4496
RightForeArm  84.5524 79.9879 71.0677
RightHand  -0.601913 6.88469 -6.03444
LeftUpLeg  -19.6788 -8.52828 16.033
LeftLeg  36.9206 10.0633 8.36794
LeftFoot  -16.3235 -0.703267 -18.2985
LeftToes  1.24767e-006 1.47042e-008 1.32732e-009
306
root  -8.75567 38.2707 28.2125 8.36224 -40.5697 -5.30725
RightUpLeg  -11.9907 0.181702 -19.5252
RightLeg  12.2516 -4.49219 -4.44103
RightFoot  6.66605 -1.9074 12.2855
RightToes  -2.08645e-008 3.77894e-005 6.81332e-007
Spine  13.9845 0.530086 -0.132367
Spine1  6.72571 -0.756287 5.2577
HEad  -41.672 30.3752 -19.5067
LeftShoulder1  6.59963 -12.472 -35.2848
LeftArm  13.289 20.2236 -32.4936
LeftForeArm  105.499 -80.4998 -92.5188
LeftHand  -0.472543 -3.5837 6.37084
RightShoulder  3.41403 6.00383 29.9988
RightArm  6.67428 -26.1121 31.7569
RightForeArm  94.435 80.4403 79.0461
RightHand  -0.632076 7.33009 -6.11283
LeftUpLeg  -17.56 -4.63679 14.7656
LeftLeg  30.1834 7.50379 5.04132
LeftFoot  -13.6414 -0.243858 -16.1046
LeftToes  1.24767e-006 1.47042e-008 1.32732e-009
307
root  -8.16752 39.216 28.623 8.87262 -37.9255 -5.26004
RightUpLeg  -10.3973 -3.87042 -17.2165
RightLeg  14.6219 -7.14907 -3.86103
RightFoot  6.27839 -1.31428 8.74048
RightToes  -2.08645e-008 3.77894e-005 6.81332e-007
Spine  11.8637 0.451831 0.102447
Spine1  6.60682 -0.963792 5.94021
HEad  -40.1201 29.6293 -19.1361
LeftShoulder1  5.88142 -11.6736 -32.7497
LeftArm  13.7897 27.144 -28.6715
LeftForeArm  110.944 -80.2464 -100.37
LeftHand  -0.390892 -3.83906 5.18506
RightShoulder  3.47782 6.10038 30.3065
RightArm  10.665 -28.6789 34.1732
RightForeArm  109.417 80.761 90.7228
RightHand  -0.151901 9.17904 -1.6014
LeftUpLeg  -15.7796 -2.42308 13.6917
LeftLeg  22.7251 4.27752 2.27076
LeftFoot  -9.1076 0.320803 -13.5399
LeftToes  1.24767e-006 1.47042e-008 1.32732e-009
308
root  -7.78161 39.8831 28.7613 10.4012 -37.2996 -6.0015
RightUpLeg  -11.4563 -2.85653 -13.453
RightLeg  21.79 -8.1579 -3.65537
RightFoot  2.9157 -1.11718 9.08794
RightToes  -2.08645e-008 3.77894e-005 6.81332e-007
Spine  8.6543 1.18567 1.0375
Spine1  7.55616 0.201269 4.19912
HEad  -39.7091 27.9915 -19.5433
LeftShoulder1  5.16532 -10.8174 -30.0569
LeftArm  13.6467 31.5964 -24.6376
LeftForeArm  111.369 -80.2617 -100.425
LeftHand  -0.326025 -4.00823 4.29877
RightShoulder  3.53464 6.15936 30.6802
RightArm  14.0252 -29.8862 35.5265
RightForeArm  125.783 80.6007 104.393
RightHand  0.262737 10.4471 1.50917
LeftUpLeg  -14.8711 0.122545 13.4654
LeftLeg  17.3333 2.17515 1.23261
LeftFoot  -4.76975 0.753553 -12.5456
LeftToes  1.24767e-006 1.47042e-008 1.32732e-009
309
root  -7.27556 40.1791 28.8533 9.46991 -35.7831 -5.40683
RightUpLeg  -11.2726 -6.08954 -10.2171
RightLeg  29.7051 -4.92054 -3.23029
RightFoot  0.161348 -0.995229 9.86092
RightToes  -2.08645e-008 3.77894e-005 6.81332e-007
Spine  8.47796 1.40066 1.48518
Spine1  7.29812 0.796548 2.74679
HEad  -39.1517 26.2323 -19.6467
LeftShoulder1  4.62076 -10.1313 -27.8244
LeftArm  12.3033 33.4233 -21.0572
LeftForeArm  102.662 -80.3588 -92.671
LeftHand  -0.315508 -3.74594 4.27367
RightShoulder  3.47304 6.07229 30.3647
RightArm  16.7724 -28.7373 35.7772
RightForeArm  134.158 80.24 111.916
RightHand  0.213495 10.5206 1.13411
LeftUpLeg  -13.5977 1.24428 11.891
LeftLeg  14.1187 0.10848 0.960702
LeftFoot  -2.66519 0.885687 -11.4564
LeftToes  1.24767e-006 1.47042e-008 1.32732e-009
310
root  -6.69357 40.0678 28.9423 6.93536 -32.7749 -3.52368
RightUpLeg  -9.65626 -9.91124 -8.63761
RightLeg  36.3474 -4.08468 -3.4832
RightFoot  -3.12922 -0.80621 10.9015
RightToes  -2.08645e-008 3.77894e-005 6.81332e-007
Spine  9.77123 0.850007 0.906525
Spine1  6.21764 0.382841 2.21259
HEad  -38.0454 24.5813 -18.9968
LeftShoulder1  4.20458 -9.53516 -26.1278
LeftArm  9.62882 33.3971 -18.2668
LeftForeArm  92.3677 -80.2406 -83.9989
LeftHand  -0.315561 -3.62039 4.32493
RightShoulder  3.34484 5.93354 29.5236
RightArm  18.1064 -26.4918 35.3219
RightForeArm  135.086 79.948 114.702
RightHand  0.248642 10.0542 1.45192
LeftUpLeg  -13.0867 -1.09784 9.46397
LeftLeg  13.7076 -0.525879 0.800675
LeftFoot  -3.10592 0.741993 -10.0311
LeftToes  1.24767e-006 1.47042e-008 1.32732e-009
